<?xml version="1.0" encoding="utf-8"?>
<!-- Generator: Adobe Illustrator 22.1.0, SVG Export Plug-In . SVG Version: 6.00 Build 0)  -->
<svg version="1.1" id="Capa_1" xmlns="http://www.w3.org/2000/svg" xmlns:xlink="http://www.w3.org/1999/xlink" x="0px" y="0px"
	 viewBox="0 0 411.1 411.1" style="enable-background:new 0 0 411.1 411.1;" xml:space="preserve">
<style type="text/css">
	.st0{fill:#DE6262;}
	.st1{fill:#FFFFFF;}
	.st2{fill:#F7F1E6;}
</style>
<g id="Guides_For_Artboard_43_">
</g>
<g id="Artwork_42_">
</g>
<g>
	<path class="st0" d="M132.2,112c0-0.2,0-0.4,0-0.6H81.1c0,0-0.1,0-0.1,0c-1.9-0.1-25.9-0.7-36.5,16c-11,17.4-14,31.2-30.5,56.7
		C1.6,202.8,0.4,211.5,0.4,222.6c0,11.2-0.4,18.9-0.4,39.2s12.7,28.4,30.7,28.4c3.1,0,9.1,0,16.8,0C48,269,65.4,252,86.7,252
		s38.6,17,39.2,38.2c2.2,0,4.3,0,6.3,0V112z M117.5,209.9c0,0-64.6-0.2-70.5-0.2s-12.8-6.8-7.5-18.5c7.1-14.4,15.4-30.1,19-35.7
		c6.3-9.9,20.8-9.1,20.8-9.1h38.4L117.5,209.9z"/>
	<path class="st0" d="M86.7,251.7c-21.5,0-38.9,17.1-39.5,38.5c0,0.3,0,0.7,0,1c0,21.8,17.7,39.5,39.5,39.5s39.5-17.7,39.5-39.5
		c0-0.3,0-0.7,0-1C125.6,268.9,108.1,251.7,86.7,251.7z M107.7,291.2c0,11.6-9.4,21-21,21c-11.6,0-21-9.4-21-21s9.4-21,21-21
		C98.3,270.2,107.7,279.6,107.7,291.2z"/>
	<circle class="st1" cx="86.7" cy="291.2" r="21.5"/>
	<path class="st1" d="M58.4,155.4c-3.6,5.6-11.9,21.3-19,35.7c-5.3,11.7,1.7,18.5,7.5,18.5c5.8,0,70.5,0.2,70.5,0.2l0.2-63.6H79.3
		C79.3,146.3,64.7,145.5,58.4,155.4z"/>
	<path class="st0" d="M385.4,86.4H157.8c-10.2,0-19,5.9-23.1,14.6c-1.5,3.2-3.5,9.2-3.5,11.1v178.2l142.8,0.1c0,0,0-0.1,0-0.1
		c0-21.6,17.5-39.2,39.2-39.2c21.6,0,39.2,17.5,39.2,39.2c0,0.1,0,0.1,0,0.2l33.1,0c14.2,0,25.7-11.5,25.7-25.7V112
		C411.1,97.8,399.6,86.4,385.4,86.4z M304.7,181.4c0,5.4-4.4,9.8-9.8,9.8h-15.6v15.6c0,5.4-4.4,9.8-9.8,9.8h-6.6
		c-5.4,0-9.8-4.4-9.8-9.8v-15.6h-15.6c-5.4,0-9.8-4.4-9.8-9.8v-6.6c0-5.4,4.4-9.8,9.8-9.8H253v-15.6c0-5.4,4.4-9.8,9.8-9.8h6.6
		c5.4,0,9.8,4.4,9.8,9.8V165h15.6c5.4,0,9.8,4.4,9.8,9.8L304.7,181.4L304.7,181.4z"/>
	<path class="st0" d="M313.1,250.7c-21.8,0-39.5,17.7-39.5,39.5c0,0,0,0.1,0,0.1c0.1,21.8,17.7,39.4,39.5,39.4
		c21.8,0,39.4-17.6,39.5-39.3c0-0.1,0-0.1,0-0.2C352.6,268.4,334.9,250.7,313.1,250.7z M313.1,311.2c-11.6,0-21-9.4-21-21
		s9.4-21,21-21s21,9.4,21,21S324.7,311.2,313.1,311.2z"/>
	<circle class="st1" cx="313.1" cy="290.2" r="21.5"/>
	<path class="st0" d="M120.6,89.4c0-5-5.2-9.1-11.5-9.1s-11.5,4.1-11.5,9.1v11.5h23L120.6,89.4L120.6,89.4z"/>
	<path class="st2" d="M294.9,165h-15.6v-15.6c0-5.4-4.4-9.8-9.8-9.8h-6.6c-5.4,0-9.8,4.4-9.8,9.8V165h-15.6c-5.4,0-9.8,4.4-9.8,9.8
		v6.6c0,5.4,4.4,9.8,9.8,9.8H253v15.6c0,5.4,4.4,9.8,9.8,9.8h6.6c5.4,0,9.8-4.4,9.8-9.8v-15.6h15.6c5.4,0,9.8-4.4,9.8-9.8v-6.6
		C304.7,169.4,300.3,165,294.9,165z"/>
</g>
</svg>
