<?xml version="1.0" encoding="iso-8859-1"?>
<!-- Generator: Adobe Illustrator 19.0.0, SVG Export Plug-In . SVG Version: 6.00 Build 0)  -->
<svg version="1.1" id="Layer_1" xmlns="http://www.w3.org/2000/svg" xmlns:xlink="http://www.w3.org/1999/xlink" x="0px" y="0px"
	 viewBox="0 0 496.8 496.8" style="enable-background:new 0 0 496.8 496.8;" xml:space="preserve">
<rect x="160" y="64.4" style="fill:#5E6664;" width="176" height="48"/>
<polyline style="fill:#2F423F;" points="160,80.4 336,80.4 336,120.4 "/>
<path style="fill:#EAEAEA;" d="M496,387.6c0,33.6-27.2,36.8-60.8,36.8H60.8c-33.6,0-60.8-3.2-60.8-36.8v-240
	c0-32.8,27.2-43.2,60.8-43.2H436c33.6,0,60.8,10.4,60.8,44v239.2H496z"/>
<path style="fill:#D4D4D6;" d="M64,104.4h371.2c33.6,0,60.8,10.4,60.8,44v240c0,33.6-27.2,36.8-60.8,36.8H392"/>
<rect x="40" y="160.4" style="fill:#6965A8;" width="304" height="208"/>
<g>
	<rect x="40" y="160.4" style="fill:#40406B;" width="304" height="8"/>
	<polyline style="fill:#40406B;" points="344,160.4 344,368.4 40,368.4 	"/>
</g>
<polygon style="fill:#C4C4C4;" points="394.4,229.2 496,330.8 496,214 452.8,170.8 "/>
<circle style="fill:#50BB75;" cx="424" cy="198.8" r="41.6"/>
<path style="fill:#0AA06E;" d="M453.6,169.2c16,16,16,42.4,0,59.2c-16,16-42.4,16-59.2,0"/>
<g>
	<rect x="72" y="176.4" style="fill:#8989CE;" width="16" height="16"/>
	<rect x="112" y="176.4" style="fill:#8989CE;" width="16" height="16"/>
	<rect x="144" y="176.4" style="fill:#8989CE;" width="16" height="16"/>
	<rect x="184" y="176.4" style="fill:#8989CE;" width="16" height="16"/>
	<rect x="224" y="176.4" style="fill:#8989CE;" width="16" height="16"/>
	<rect x="256" y="176.4" style="fill:#8989CE;" width="16" height="16"/>
	<rect x="296" y="176.4" style="fill:#8989CE;" width="16" height="16"/>
	<rect x="72" y="336.4" style="fill:#8989CE;" width="16" height="16"/>
	<rect x="112" y="336.4" style="fill:#8989CE;" width="16" height="16"/>
	<rect x="144" y="336.4" style="fill:#8989CE;" width="16" height="16"/>
	<rect x="184" y="336.4" style="fill:#8989CE;" width="16" height="16"/>
	<rect x="224" y="336.4" style="fill:#8989CE;" width="16" height="16"/>
	<rect x="256" y="336.4" style="fill:#8989CE;" width="16" height="16"/>
	<rect x="296" y="336.4" style="fill:#8989CE;" width="16" height="16"/>
</g>
<g>
	<path style="fill:#8D8D93;" d="M467.2,296.4c0,4-3.2,8-6.4,8h-73.6c-4,0-6.4-4-6.4-8l0,0c0-4,3.2-8,6.4-8h73.6
		C464,288.4,467.2,292.4,467.2,296.4L467.2,296.4z"/>
	<path style="fill:#8D8D93;" d="M467.2,328.4c0,4-3.2,8-6.4,8h-73.6c-4,0-6.4-4-6.4-8l0,0c0-4,3.2-8,6.4-8h73.6
		C464,320.4,467.2,324.4,467.2,328.4L467.2,328.4z"/>
	<path style="fill:#8D8D93;" d="M467.2,360.4c0,4-3.2,8-6.4,8h-73.6c-4,0-6.4-4-6.4-8l0,0c0-4,3.2-8,6.4-8h73.6
		C464,352.4,467.2,356.4,467.2,360.4L467.2,360.4z"/>
</g>
<g>
	<path style="fill:#A8A8A8;" d="M467.2,296.4c0,4-2.4,8-5.6,8h-63.2c-3.2,0-5.6-4-5.6-8l0,0c0-4,2.4-8,5.6-8h63.2
		C464.8,288.4,467.2,292.4,467.2,296.4L467.2,296.4z"/>
	<path style="fill:#A8A8A8;" d="M467.2,328.4c0,4-2.4,8-5.6,8h-63.2c-3.2,0-5.6-4-5.6-8l0,0c0-4,2.4-8,5.6-8h63.2
		C464.8,320.4,467.2,324.4,467.2,328.4L467.2,328.4z"/>
	<path style="fill:#A8A8A8;" d="M467.2,360.4c0,4-2.4,8-5.6,8h-63.2c-3.2,0-5.6-4-5.6-8l0,0c0-4,2.4-8,5.6-8h63.2
		C464.8,352.4,467.2,356.4,467.2,360.4L467.2,360.4z"/>
</g>
<rect x="40" y="424.4" style="fill:#5E6664;" width="48" height="24"/>
<polyline style="fill:#2F423F;" points="40,424.4 88,424.4 88,448.4 "/>
<rect x="408" y="424.4" style="fill:#5E6664;" width="48" height="24"/>
<polyline style="fill:#2F423F;" points="408,424.4 456,424.4 456,448.4 "/>
<rect x="16" y="448.4" style="fill:#EAEAEA;" width="464" height="16"/>
<polyline style="fill:#50BB75;" points="53.6,259.6 90.4,256.4 103.2,235.6 116,298 146.4,208.4 159.2,326.8 179.2,254.8 267.2,258 
	276.8,243.6 282.4,275.6 296.8,233.2 301.6,260.4 332,262 "/>
<rect x="136" y="32.4" style="fill:#EAEAEA;" width="224" height="48"/>
<polyline style="fill:#D4D4D6;" points="136,32.4 360,32.4 360,80.4 "/>
<g>
</g>
<g>
</g>
<g>
</g>
<g>
</g>
<g>
</g>
<g>
</g>
<g>
</g>
<g>
</g>
<g>
</g>
<g>
</g>
<g>
</g>
<g>
</g>
<g>
</g>
<g>
</g>
<g>
</g>
</svg>
