<?xml version="1.0" encoding="utf-8"?>
<!-- Generator: Adobe Illustrator 22.1.0, SVG Export Plug-In . SVG Version: 6.00 Build 0)  -->
<svg version="1.1" id="Capa_1" xmlns="http://www.w3.org/2000/svg" xmlns:xlink="http://www.w3.org/1999/xlink" x="0px" y="0px"
	 viewBox="0 0 612 612" style="enable-background:new 0 0 612 612;" xml:space="preserve">
<style type="text/css">
	.st0{fill:#DE6262;}
</style>
<g>
	<path class="st0" d="M542.3,235.5c-6.6-76.8-52.1-147.6-115.8-190.1C391.7,22.2,351.2,8,309.7,2.6C195.3-12.3,74.8,37.9,31.7,150.3
		c-37.1,96.6-0.5,192.5,65.9,265.6c24,26.4,27.3,76,27.3,109.4v67.8c0,10.4,8.4,18.8,18.8,18.8H389c9.9,0,18.1-7.7,18.8-17.6
		c0.9-13.3,2.4-25.1,2.4-25.1c5.1-22,23.9-39.6,63.8-33.2c41.8,6.7,68.2-5.8,70.6-33.6c0.8-9.2,1.3-87.7,1.3-87.7
		c2-1.1,15.1-3.8,34.2-8.1c14.9-3.4,20.1-21.8,9.3-32.6c-43.5-43-49.3-63-50.4-67.4C533.6,285.3,544.3,258,542.3,235.5z
		 M461.3,209.9c-6,7.7-12.9,9.1-16.6,9.3c-1.2,0.1-2,1.2-1.7,2.4c1.9,6.6,3.8,24.7-28.7,31.8c-30.4,6.6-48.8,30.3-60.9,42.3
		c-9.2,9.2-21.7,13.5-34.2,16.3c-12.7,2.9-25.3,5.4-35.4,14.4c-10.6,9.5-25.5,62-28,71.1c-0.2,0.8-1,1.4-1.8,1.4h-15.6
		c-0.9,0-1.6-0.6-1.8-1.5l-7.6-35.8c-0.3-1.5-73.7,4.5-79.3-28.2c-0.2-1.1-1.4-1.9-2.5-1.5c-7.1,2.5-29.7,8.8-41.9-10.1
		c-8.7-13.4-6.4-26-5.2-30.3c0.3-0.9-0.2-1.8-1.1-2.2c-6.2-2.7-28.7-15.3-25.7-56.8c2.5-33.4,25.1-48.3,21.9-53.4
		c-9.1-14.8-1.2-39.4,17.5-44.9c0.8-0.2,1.3-0.9,1.4-1.7l0.8-8.7c2.6-30.7,43-50.2,70.5-37.4c1.1,0.5,2.3,0,2.7-1.1
		c3.4-10.9,10.4-13.9,12.2-14.9c8.5-4.8,19.6-4.2,28.4-0.6c0.7,0.3,1.5,0.1,2-0.4c2.5-2.7,12.8-11.2,29.7-11.2
		c17.4,0,26.3,8.5,29.4,10.8c0.6,0.4,1.3,0.5,2,0.2c3.9-2,18.2-8.4,32.6-3.5c10.8,3.7,17,13.6,18.9,17.2c0.4,0.8,1.3,1.2,2.1,1
		c5.1-1.2,22.9-4.6,37.8,2.1c15.8,7.1,20.7,17.4,21.9,20.9c0.3,0.7,0.9,1.2,1.7,1.2c3.4,0.1,12.9,1,18.7,5.9
		c10.3,8.7,9.3,15.5,8.1,18.4c-0.4,0.9,0,1.9,0.9,2.3c4.7,2.3,17.9,9.9,26.1,26.1C472,182.9,467.5,202,461.3,209.9z"/>
</g>
</svg>
