<?xml version="1.0" encoding="utf-8"?>
<!-- Generator: Adobe Illustrator 22.1.0, SVG Export Plug-In . SVG Version: 6.00 Build 0)  -->
<svg version="1.1" id="Layer_1" xmlns="http://www.w3.org/2000/svg" xmlns:xlink="http://www.w3.org/1999/xlink" x="0px" y="0px"
	 viewBox="0 0 512 512" style="enable-background:new 0 0 512 512;" xml:space="preserve">
<style type="text/css">
	.st0{fill:#DE6262;}
</style>
<g>
	<g>
		<path class="st0" d="M403.3,245.8c26.7-59.9,51.3-146.5,33.2-193.1c-25.7-65.9-80.7-55-129.3-45.5c-17.3,3.4-35.2,6.9-51.2,6.9
			s-33.9-3.5-51.2-6.9C156.3-2.4,101.4-13.2,75.5,52.7c-18.1,46.5,6.5,133.1,33.2,193.1c0.7,1.7,1.1,3.5,0.9,5.3
			c-2.6,25.1-3.8,50.3-3.7,75.5c0,68.8,10.5,185.4,49.4,185.4c33.4,0,38-44.3,42.9-91.2c6.9-67.5,15.3-115.3,57.9-115.3
			c42,0,50.1,47.4,57.1,114.1c4.9,47.5,9.5,92.3,43.7,92.3c39,0,49.5-116.6,49.5-185.4c0-25.2-1.2-50.3-3.7-75.5
			C402.3,249.3,402.6,247.4,403.3,245.8z M356.7,490.7c-14.9,0-19-38.9-22.5-73.2c-6.2-59.4-13.8-133.3-78.3-133.3
			c-65.2,0-73,74.6-79.1,134.4c-3.5,33.8-7.5,72.1-21.1,72.1c-10.2-4.2-28.6-62.4-28.6-164.2c-0.1-24.5,1.2-49,3.6-73.3
			c0.5-5.5-0.3-11.1-2.6-16.1C96.2,165.4,82.8,92.7,95.4,60.5c11.7-30,29.5-39.1,54.8-39.1c14.4,0,31,3,50.5,6.8
			c18.3,3.6,37.3,7.4,55.4,7.4s37-3.7,55.4-7.4c53.3-10.6,86.9-14.6,105.3,32.3c12.6,32.2-1,104.9-32.7,176.6
			c-2.2,5.1-3.2,10.7-2.6,16.3c2.5,24.3,3.6,48.7,3.6,73.3C384.9,428.3,366.5,486.7,356.7,490.7z"/>
	</g>
</g>
</svg>
