<svg id="Capa_1" data-name="Capa 1" xmlns="http://www.w3.org/2000/svg" viewBox="0 0 411.2 250.4"><defs><style>.cls-1{fill:#fff;}.cls-2{fill:none;}</style></defs><title>emergencia</title><path class="cls-1" d="M132.2,31.7v-.6H81c-1.9-.1-25.9-.7-36.5,16-11,17.4-14,31.2-30.5,56.7C1.6,122.5.4,131.2.4,142.3S0,161.2,0,181.5s12.7,28.4,30.7,28.4H47.5a39.21,39.21,0,0,1,78.4,0h6.3Zm-14.7,97.9s-64.6-.2-70.5-.2-12.8-6.8-7.5-18.5c7.1-14.4,15.4-30.1,19-35.7,6.3-9.9,20.8-9.1,20.8-9.1h38.4Z"/><path class="cls-1" d="M86.7,171.4a39.51,39.51,0,0,0-39.5,38.5v1a39.5,39.5,0,0,0,79,0v-1A39.65,39.65,0,0,0,86.7,171.4Zm21,39.5a21,21,0,1,1-21-21h0A21,21,0,0,1,107.7,210.9Z"/><circle class="cls-2" cx="86.7" cy="210.9" r="21.5"/><path class="cls-2" d="M58.4,75.1c-3.6,5.6-11.9,21.3-19,35.7-5.3,11.7,1.7,18.5,7.5,18.5s70.5.2,70.5.2l.2-63.6H79.3C79.3,66,64.7,65.2,58.4,75.1Z"/><path class="cls-1" d="M385.4,6.1H157.8a25.45,25.45,0,0,0-23.1,14.6c-1.5,3.2-3.5,9.2-3.5,11.1V210l142.8.1V210a39.2,39.2,0,1,1,78.4,0v.23h33.1a25.69,25.69,0,0,0,25.7-25.68V31.7A25.76,25.76,0,0,0,385.4,6.1Zm-80.7,95a9.82,9.82,0,0,1-9.8,9.8H279.3v15.6a9.82,9.82,0,0,1-9.8,9.8h-6.6a9.82,9.82,0,0,1-9.8-9.8V110.9H237.5a9.82,9.82,0,0,1-9.8-9.8V94.5a9.82,9.82,0,0,1,9.8-9.8H253V69.1a9.82,9.82,0,0,1,9.8-9.8h6.6a9.82,9.82,0,0,1,9.8,9.8V84.7h15.6a9.82,9.82,0,0,1,9.8,9.8l.1,6.6Z"/><path class="cls-1" d="M313.1,170.4a39.52,39.52,0,0,0-39.5,39.5v.1a39.5,39.5,0,0,0,79,.1v-.2A39.52,39.52,0,0,0,313.1,170.4Zm0,60.5a21,21,0,1,1,21-21h0A21,21,0,0,1,313.1,230.9Z"/><circle class="cls-2" cx="313.1" cy="209.9" r="21.5"/><path class="cls-1" d="M120.6,9.1c0-5-5.2-9.1-11.5-9.1S97.6,4.1,97.6,9.1V20.6h23Z"/><path class="cls-2" d="M294.9,84.7H279.3V69.1a9.82,9.82,0,0,0-9.8-9.8h-6.6a9.82,9.82,0,0,0-9.8,9.8V84.7H237.5a9.82,9.82,0,0,0-9.8,9.8v6.6a9.82,9.82,0,0,0,9.8,9.8H253v15.6a9.82,9.82,0,0,0,9.8,9.8h6.6a9.82,9.82,0,0,0,9.8-9.8V110.9h15.6a9.82,9.82,0,0,0,9.8-9.8V94.5a9.67,9.67,0,0,0-9.54-9.8Z"/></svg>