<svg id="Capa_1" data-name="Capa 1" xmlns="http://www.w3.org/2000/svg" viewBox="0 0 302.4 408.5"><defs><style>.cls-1{fill:#fff;}.cls-2{fill:#664b3a;}.cls-3{fill:#dec8ae;}.cls-4{fill:#f7f1e6;}.cls-5{fill:none;}</style></defs><title>enfermera</title><path class="cls-1" d="M241.4,237.8a254.64,254.64,0,0,1,27,18.1c11.9,4.2,25.1,10.2,40.4,18.6,2.3,1.3,4.7,2.5,7.1,3.7a45.51,45.51,0,0,0,.3-7.3c-.8-14.8-9.3-9.2-11.5-8-4,2.3-8.9.4-12.4-3.9,14.8-7.7,23.1-22.8,23.1-35.1,0-11.1-7-7.3-9.1-6.4-11.1,4.5-21.8-17.6-6.5-34.2,8.3-8,4.1-13.6,1.6-16.4a70.54,70.54,0,0,0-8.9-8.5c-.9,1.7-1.6,3.1-2.4,4.5C284,192.8,265.7,222.3,241.4,237.8Z" transform="translate(-52.9 0.1)"/><path class="cls-2" d="M171.3,239.3c-.1-.1-.2-.1-.3-.2,0,2.7-.1,5.7,0,9h.3v-8.8Z" transform="translate(-52.9 0.1)"/><path class="cls-1" d="M142.3,255.1c8.3-7.4,20.3-12.2,28.7-16-21.8-14-41.1-40.9-48.7-67.7-2.1-1.8-4.2-5.5-6.4-11.5a90.44,90.44,0,0,0-7,6.9c-2.5,2.8-6.7,8.4,1.6,16.4,15.3,16.5,4.6,38.6-6.5,34.2-2.2-.9-9.2-4.7-9.1,6.4,0,12.3,8.3,27.4,23.1,35.1-3.5,4.3-8.3,6.2-12.4,3.9-2.2-1.2-10.7-6.8-11.5,8a35.6,35.6,0,0,0,.2,6.5c1.8-.9,3.7-1.9,5.4-2.8A264.77,264.77,0,0,1,142.3,255.1Z" transform="translate(-52.9 0.1)"/><path class="cls-3" d="M204.7,349.5c0-.1.1-.2.1-.3s-.1-.1-.1-.2Z" transform="translate(-52.9 0.1)"/><path class="cls-3" d="M171,248.1c0,2.6.1,5.4.3,8.3V248A.37.37,0,0,1,171,248.1Z" transform="translate(-52.9 0.1)"/><path class="cls-4" d="M204.6,340.7a51.15,51.15,0,0,1,.3,5.6A17.61,17.61,0,0,0,204.6,340.7Z" transform="translate(-52.9 0.1)"/><path class="cls-4" d="M204.9,349.1v0Z" transform="translate(-52.9 0.1)"/><path class="cls-4" d="M315.9,278.2c-2.4-1.2-4.8-2.4-7.1-3.7-15.2-8.4-28.4-14.4-40.4-18.6,9.6,8.7,17.3,18.8,18.9,28-9.8-7.2-17-11.9-39.9-12.1,5.5,6,13.2,21.5,16.2,35.6-14.2,0-37.4,10.3-58.7,41.9l-.1-.1c0,.1-.1.2-.1.3V349c-21.2-31.4-44.3-41.6-58.5-41.6,3-14.1,10.7-29.6,16.2-35.6-22.9.2-30,4.9-39.9,12.1,1.6-9.5,9.7-19.9,19.7-28.8-12.5,4.2-26.4,10.4-42.6,19.4-1.8,1-3.6,1.9-5.4,2.8-19,9.5-41.3,17-41.3,43.8v60.7c0,15.2,15.5,26.6,37.4,26.6H317.9c21.9,0,37.4-11.4,37.4-26.6V321.1C355.5,295.1,334.5,287.2,315.9,278.2Zm-12,92.7a5,5,0,0,1-5,5h-8v8a5,5,0,0,1-5,5h-3.4a5,5,0,0,1-5-5v-8h-8a5,5,0,0,1-5-5v-3.4a5,5,0,0,1,5-5h8v-8a5,5,0,0,1,5-5h3.4a5,5,0,0,1,5,5v8h8a5,5,0,0,1,5,5Z" transform="translate(-52.9 0.1)"/><path class="cls-1" d="M238.9,239.4c-10.4,6.1-21.8,9.7-33.7,9.7s-23.4-3.6-33.9-9.7v17.1c.6,8.5,2,17.8,5.6,26.3a44.12,44.12,0,0,0,5.8,10.1c11.6,15.2,20,26.9,21.8,47.9a17.61,17.61,0,0,1,.3,5.6v2.7h0c.1-26.5,9.1-39.1,22.2-56.2a50,50,0,0,0,6.1-10.8C239.2,267.4,238.9,250.4,238.9,239.4Z" transform="translate(-52.9 0.1)"/><path class="cls-5" d="M171,239.1c.1.1.2.1.3.2a66,66,0,0,0,33.9,9.7c11.9,0,23.3-3.6,33.7-9.7,1.1-.7,1.4-.9,2.6-1.6,24.2-15.5,42.6-44.9,48.6-74.9-8.2,12.8-14.5,8.2-15.8-12.4-.9-13.7-8.7-29.6-24-40.9a79.49,79.49,0,0,1,5.1,21.6c.5,5.5-1.3,17.2-16.3,15.9-34.1-5.1-64.2-20.9-80.8-38.3-17.3,12.8-23,31.5-22.7,42.2.3,12-5.9,26.7-13.1,20.5,7.6,26.8,24.5,52.1,46.3,66.1A5.17,5.17,0,0,0,171,239.1Z" transform="translate(-52.9 0.1)"/><path class="cls-5" d="M204.9,346.3c-.1-2-.2-3.8-.3-5.6-1.8-21-10.2-32.7-21.8-47.9a46.34,46.34,0,0,1-5.8-10.1c-3.6-8.4-5.1-17.8-5.6-26.3-.2-2.9,0-5.5,0-8.2V239c-1.5-.7-1-.6-2.2-1.2A115.57,115.57,0,0,0,142.3,255c-10,8.9-18.2,19.3-19.7,28.8,9.8-7.2,17-11.9,39.9-12.1-5.5,6-13.2,21.5-16.2,35.6,14.1,0,37.3,10.2,58.5,41.6,0,.1.1.1.1.2l.1.1v-.3A21.75,21.75,0,0,1,204.9,346.3Z" transform="translate(-52.9 0.1)"/><path class="cls-5" d="M238.9,239.4c.1,11,.4,28-5.6,42.6a50,50,0,0,1-6.1,10.8c-13.1,17.1-22.1,29.7-22.2,56.2v.3c21.3-31.6,44.5-41.9,58.7-41.9-3-14.1-10.7-29.6-16.2-35.6,22.9.2,30,4.9,39.9,12.1-1.5-9.2-9.2-19.3-18.9-28-8.5-7.6-27-18.1-27-18.1S239.9,238.8,238.9,239.4Z" transform="translate(-52.9 0.1)"/><path class="cls-1" d="M122.3,171.6c7.3,6.2,13.5-8.5,13.1-20.5-.3-10.7,5.4-29.4,22.7-42.2,16.6,17.4,46.7,33.2,80.8,38.3,15,1.3,16.9-10.4,16.3-15.9a79.49,79.49,0,0,0-5.1-21.6c15.3,11.2,23.1,27.2,24,40.9,1.3,20.5,7.6,25.1,15.8,12.4.8-1.3,1.7-2.8,2.6-4.4.6-1.1,1.2-2.3,1.8-3.5,6.7-14.3-1.7-59.7-28.9-89.4-4.1,7.4-11.7,12.6-23.1,12.6H171.7c-14,0-22.3-7.8-25.3-17.8-.1-.2-.1-.5-.2-.7-29.3,24.5-40.1,65.1-33.3,91.4a83.58,83.58,0,0,0,2.8,9.1C118,166.1,120.2,169.8,122.3,171.6Z" transform="translate(-52.9 0.1)"/><path class="cls-4" d="M171.8,78.1h70.6c11.4,0,19.1-5.2,23.1-12.6a31.09,31.09,0,0,0,2.2-5.3c3-10.1,10-33.8,10-33.8,4-12-2.7-26.5-16.6-26.5h-108c-14,0-20.7,14.5-16.6,26.5,0,0,6.7,22.7,9.8,33.1a6.37,6.37,0,0,0,.2.7C149.5,70.4,157.8,78.1,171.8,78.1Zm15.6-40.7a5,5,0,0,1,5-5h8v-8a5,5,0,0,1,5-5h3.4a5,5,0,0,1,5,5v8h8a5,5,0,0,1,5,5v3.4a5,5,0,0,1-5,5h-8v8a5,5,0,0,1-5,5h-3.4a5,5,0,0,1-5-5v-8h-8a5,5,0,0,1-5-5Z" transform="translate(-52.9 0.1)"/><path class="cls-5" d="M192.4,45.8h8v8a5,5,0,0,0,5,5h3.4a5,5,0,0,0,5-5v-8h8a5,5,0,0,0,5-5V37.4a5,5,0,0,0-5-5h-8v-8a5,5,0,0,0-5-5h-3.4a5,5,0,0,0-5,5v8h-8a5,5,0,0,0-5,5v3.4A5.08,5.08,0,0,0,192.4,45.8Z" transform="translate(-52.9 0.1)"/><path class="cls-5" d="M298.9,362.5h-8v-8a5,5,0,0,0-5-5h-3.4a5,5,0,0,0-5,5v8h-8a5,5,0,0,0-5,5v3.4a5,5,0,0,0,5,5h8v8a5,5,0,0,0,5,5h3.4a5,5,0,0,0,5-5v-8h8a5,5,0,0,0,5-5v-3.4A5,5,0,0,0,298.9,362.5Z" transform="translate(-52.9 0.1)"/></svg>