<?xml version="1.0" encoding="utf-8"?>
<!-- Generator: Adobe Illustrator 22.1.0, SVG Export Plug-In . SVG Version: 6.00 Build 0)  -->
<svg version="1.1" id="Capa_1" xmlns="http://www.w3.org/2000/svg" xmlns:xlink="http://www.w3.org/1999/xlink" x="0px" y="0px"
	 viewBox="0 0 429.3 429.3" style="enable-background:new 0 0 429.3 429.3;" xml:space="preserve">
<style type="text/css">
	.st0{fill:#F3DBBD;}
	.st1{fill:#DE6262;}
</style>
<g>
	<g id="Guides_For_Artboard_32_">
	</g>
	<g id="Artwork_31_">
	</g>
	<g id="Layer_2_31_">
		<g>
			<path class="st0" d="M289.4,318.4L222,251.1l-93.3,93.3l67.4,67.4l0,0c25.9,24,66.3,23.5,91.5-1.7S313.4,344.3,289.4,318.4
				L289.4,318.4z"/>
			<path class="st1" d="M154.6,183.7L154.6,183.7c-25.9-24-66.4-23.5-91.5,1.7c-25.2,25.2-25.7,65.6-1.7,91.5l0,0l67.4,67.4
				l93.3-93.3L154.6,183.7z"/>
			<path class="st0" d="M233.2,17.6L233.2,17.6c-25.9-24-66.4-23.5-91.5,1.7s-25.7,65.6-1.7,91.5l0,0l67.4,67.4l93.3-93.3
				L233.2,17.6z"/>
			<path class="st1" d="M367.9,152.4L367.9,152.4l-67.3-67.4l-93.3,93.3l67.4,67.4l0,0c25.9,24,66.3,23.5,91.5-1.7
				C391.4,218.7,391.9,178.2,367.9,152.4z"/>
		</g>
	</g>
</g>
</svg>
