<?xml version="1.0" encoding="utf-8"?>
<!-- Generator: Adobe Illustrator 23.0.0, SVG Export Plug-In . SVG Version: 6.00 Build 0)  -->
<svg version="1.1" id="Capa_1" xmlns="http://www.w3.org/2000/svg" xmlns:xlink="http://www.w3.org/1999/xlink" x="0px" y="0px"
	 viewBox="0 0 425.8 425.8" style="enable-background:new 0 0 425.8 425.8;" xml:space="preserve">
<style type="text/css">
	.st0{fill:#FFFFFF;}
	.st1{fill:#FFFFFF;stroke:#DE6262;stroke-miterlimit:10;}
	.st2{fill:#F7F1E6;}
	.st3{fill:#F7F1E6;stroke:#DE6262;stroke-miterlimit:10;}
	.st4{fill:none;}
</style>
<g id="Guides_For_Artboard_33_">
</g>
<g id="Artwork_32_">
</g>
<g>
	<path class="st0" d="M109.1,303.8c-13.7,13-116,111-108.7,118.2c7.1,7.1,100.7-90.8,117.4-108.3c-1.7-0.8-3.3-1.8-4.7-3.2
		C111.1,308.5,109.8,306.2,109.1,303.8z"/>
	<path class="st1" d="M122.8,278.8l-9.8,9.8c-4.1,4.1-5.4,10-3.9,15.2c0.7,2.4,2,4.8,3.9,6.7c1.4,1.4,3,2.5,4.7,3.2
		c5.7,2.5,12.5,1.4,17.2-3.2l8.8-8.8c-3.8-2.2-8.3-4.8-11.5-8.1C127.8,289.2,125.3,284.2,122.8,278.8z"/>
	<polygon class="st2" points="359.9,54 342.2,71.6 354.6,84 355.7,85.1 373.4,67.5 367.1,61.1 	"/>
	<path class="st0" d="M337.3,115.4c1.7,1.7,1.7,4.4,0,6c-1.7,1.7-4.4,1.7-6,0l-7-7l-17,16.9l7,7c1.7,1.7,1.7,4.4,0,6s-4.4,1.7-6,0
		l-7-7l-18.6,18.6l7,7c1.7,1.7,1.7,4.4,0,6c-1.7,1.7-4.4,1.7-6,0l-7.1-7.1l-15.8,16.8l17.8,17.8c3.2,3.2,2.2,7.4-1,10.6
		c-2.4,2.4-4.9,2-7.8,0.8L196.6,282l-0.1,0.1c-0.1,0.1-0.2,0.2-0.2,0.3c-14,14-36.7,14-50.6,0c-13.2-13.2-14.4-34.6-2.7-48.7
		c1-1,1.8-1.8,2.7-2.7l74.1-73.1c-1.4-3-0.9-6.7,1.6-9.2c3.2-3.2,7.4-2.2,10.6,1l17.5,16.5l15.8-15.8l-7.9-7.9c-1.7-1.7-1.7-4.4,0-6
		c1.7-1.7,4.4-1.7,6,0l7.9,7.9l18.6-18.6l-7.9-7.9c-1.7-1.7-1.7-4.4,0-6s4.4-1.7,6,0l7.9,7.9l17-16.9l-8-8c-1.7-1.7-1.7-4.4,0-6
		s4.4-1.7,6,0l8,8l23.4-25.3L354.6,84l-12.3-12.3L323.6,53c-6-6-15.8-6-21.9,0L132.1,222.4c-1.3,1.4-2.2,2.2-3.8,3.8
		c-12.5,15.1-14.5,36.1-6.5,53.5c2.5,5.4,5.9,10.4,10.3,14.8c3.2,3.2,6.8,5.9,10.5,8.1c19.2,11,44.1,8.4,60.5-8.1
		c0.1-0.1,0.2-0.2,0.3-0.4c0.1-0.1,0.1-0.1,0.2-0.2l169.5-169.5c6-6,6-15.8,0-21.9l-18.6-18.6l-24.4,24.3L337.3,115.4z"/>
	<path class="st3" d="M220.3,160.2c-0.7-0.7-1.2-1.5-1.6-2.3L145.6,231c-1,1-1.7,1.7-2.7,2.7c-11.7,14.1-10.5,35.5,2.7,48.7
		c14,14,36.7,14,50.6,0c0.1-0.1,0.2-0.2,0.2-0.3l0.1-0.1l73.1-73.1c-1-0.4-1.9-1-2.7-1.8L220.3,160.2z"/>
	<path class="st0" d="M421.9,78.6L386.2,43L350.6,7.3c-5-5-12.8-5.2-17.5-0.5L331,8.9c-4.7,4.7-4.5,12.5,0.5,17.5L359.9,55l7.1,7.2
		l6.3,6.3l29.3,29.3c5,5,12.8,5.2,17.5,0.5l2.1-2.1C427.1,91.4,426.9,83.6,421.9,78.6z"/>
	<g>
		<polygon class="st4" points="294.8,118.8 308.3,132.3 325.3,115.4 311.8,101.9 		"/>
		<polygon class="st4" points="270.2,143.4 283.7,156.9 302.3,138.3 288.8,124.8 		"/>
		<path class="st4" d="M261.8,178.7l15.8-15.8l-13.5-13.5l-15.8,15.8l-16.5-16.5c-3.2-3.2-8.4-3.2-11.6,0c-2.5,2.5-3,6.2-1.6,9.2
			c0.4,0.8,0.9,1.6,1.6,2.3L267,207c0.8,0.8,1.7,1.4,2.7,1.8c2.9,1.2,6.5,0.6,8.8-1.8c3.2-3.2,3.2-8.4,0-11.6L261.8,178.7z"/>
		<polygon class="st4" points="354.6,84 342.2,71.6 317.8,95.9 331.3,109.4 355.7,85.1 355.7,85.1 		"/>
	</g>
	<path class="st3" d="M263.3,136.5c-1.7-1.7-4.4-1.7-6,0c-1.7,1.7-1.7,4.4,0,6l6.9,6.9l13.5,13.5l6.1,6.1c1.7,1.7,4.4,1.7,6,0
		c1.7-1.7,1.7-4.4,0-6l-6-6l-13.5-13.5L263.3,136.5z"/>
	<path class="st3" d="M287.9,111.9c-1.7-1.7-4.4-1.7-6,0s-1.7,4.4,0,6l6.9,6.9l13.5,13.5l6,6c1.7,1.7,4.4,1.7,6,0
		c1.7-1.7,1.7-4.4,0-6l-6-6l-13.5-13.5L287.9,111.9z"/>
	<path class="st3" d="M304.8,88.9c-1.7,1.7-1.7,4.4,0,6l7,7l13.5,13.5l6,6c1.7,1.7,4.4,1.7,6,0c1.7-1.7,1.7-4.4,0-6l-6-6l-13.5-13.5
		l-7-7C309.2,87.2,306.5,87.2,304.8,88.9z"/>
</g>
</svg>
