<?xml version="1.0" encoding="iso-8859-1"?>
<!-- Generator: Adobe Illustrator 19.0.0, SVG Export Plug-In . SVG Version: 6.00 Build 0)  -->
<svg version="1.1" id="Layer_1" xmlns="http://www.w3.org/2000/svg" xmlns:xlink="http://www.w3.org/1999/xlink" x="0px" y="0px"
	 viewBox="0 0 496 496" style="enable-background:new 0 0 496 496;" xml:space="preserve">
<path style="fill:#FFC114;" d="M232,367.2V456H106.4c-4,16-6.4,32-6.4,40h263.2C364,424,304,367.2,232,367.2z"/>
<path style="fill:#F9A12C;" d="M232,413.6v-67.2c56,0,96.8-43.2,96.8-96.8S288,152.8,232,152.8V85.6c88,0,164,73.6,164,164
	C396,340.8,320,413.6,232,413.6z"/>
<g>
	<path style="fill:#E88610;" d="M396,250.4c0,90.4-76,164-164,164v-67.2c56,0,96.8-43.2,96.8-96.8"/>
	<rect x="160" style="fill:#E88610;" width="64" height="32"/>
</g>
<rect x="152" y="40" style="fill:#8989CC;" width="80" height="160"/>
<polyline style="fill:#6965A8;" points="152,40 232,40 232,200 "/>
<circle style="fill:#EAEAEA;" cx="194.4" cy="144.8" r="24"/>
<circle style="fill:#50BB75;" cx="194.4" cy="144.8" r="14.4"/>
<path style="fill:#0AA06E;" d="M204,134.4c5.6,5.6,5.6,14.4,0,20s-14.4,5.6-20,0"/>
<rect x="136" y="200" style="fill:#FFC114;" width="120" height="32"/>
<polyline style="fill:#FCA12A;" points="136,200 256,200 256,232 "/>
<rect x="128" y="8" style="fill:#FFC114;" width="128" height="32"/>
<g>
	<polyline style="fill:#FCA12A;" points="128,8 256,8 256,40 	"/>
	<rect x="152" y="232" style="fill:#FCA12A;" width="88" height="32"/>
</g>
<g>
	<polyline style="fill:#E88610;" points="152,232 240,232 240,264 	"/>
	<rect x="184" y="264" style="fill:#E88610;" width="24" height="16"/>
</g>
<polygon style="fill:#EAEAEA;" points="241.6,344 147.2,344 181.6,280 206.4,280 "/>
<rect x="136" y="344" style="fill:#E88610;" width="112" height="24"/>
<rect x="176" y="384" style="fill:#8989CC;" width="32" height="16"/>
<g>
</g>
<g>
</g>
<g>
</g>
<g>
</g>
<g>
</g>
<g>
</g>
<g>
</g>
<g>
</g>
<g>
</g>
<g>
</g>
<g>
</g>
<g>
</g>
<g>
</g>
<g>
</g>
<g>
</g>
</svg>
