<?xml version="1.0" encoding="utf-8"?>
<!-- Generator: Adobe Illustrator 22.1.0, SVG Export Plug-In . SVG Version: 6.00 Build 0)  -->
<svg version="1.1" id="Capa_1" xmlns="http://www.w3.org/2000/svg" xmlns:xlink="http://www.w3.org/1999/xlink" x="0px" y="0px"
	 viewBox="0 0 496 496" style="enable-background:new 0 0 496 496;" xml:space="preserve">
<style type="text/css">
	.st0{fill:#FFFFFF;}
	.st1{fill:#DE6262;}
	.st2{fill:#F9E0A6;}
	.st3{fill:#EABD8C;}
</style>
<rect x="8" y="8" class="st0" width="384" height="368"/>
<rect x="40" y="8" class="st0" width="320" height="320"/>
<rect x="376" y="408" class="st1" width="112" height="80"/>
<path class="st0" d="M224.5,184c25.9,0,51.3-6.8,73.8-19.6c13.4-7.7,21.7-22,21.7-37.4c0-4.6-0.7-9.2-2.2-13.6L312,96l-5.3,10.6
	c-7,14-17.8,25.6-31.2,33.7c-12.8,7.7-27.4,11.7-42.2,11.7H216v-32h8.5c25.9,0,51.3-6.8,73.8-19.6c13.4-7.7,21.7-22,21.7-37.4
	c0-4.6-0.7-9.2-2.2-13.6L312,32l-5.3,10.6c-7,14-17.8,25.6-31.2,33.7C262.7,84,248.1,88,233.3,88H216V56l-16-16l-16,16v32h-17.3
	c-14.9,0-29.5-4-42.2-11.7c-13.4-8-24.2-19.7-31.2-33.7L88,32l-5.8,17.4c-1.5,4.4-2.2,9-2.2,13.6c0,15.5,8.3,29.7,21.7,37.4
	c22.5,12.8,47.9,19.6,73.8,19.6h8.5v32h-17.3c-14.9,0-29.5-4-42.2-11.7c-13.4-8-24.2-19.7-31.2-33.7L88,96l-5.8,17.4
	c-1.5,4.4-2.2,9-2.2,13.6c0,15.5,8.3,29.7,21.7,37.4c22.5,12.8,47.9,19.6,73.8,19.6h8.5v32h-17.3c-14.9,0-29.5-4-42.2-11.7
	c-13.4-8-24.2-19.7-31.2-33.7L88,160l-5.8,17.4c-1.5,4.4-2.2,9-2.2,13.6c0,15.5,8.3,29.7,21.7,37.4c22.5,12.8,47.9,19.6,73.8,19.6
	h8.5v32l16,16l16-16v-32h8.5c25.9,0,51.3-6.8,73.8-19.6c13.4-7.7,21.7-22,21.7-37.4c0-4.6-0.7-9.2-2.2-13.6L312,160l-5.3,10.6
	c-7,14-17.8,25.6-31.2,33.7c-12.8,7.7-27.4,11.7-42.2,11.7H216v-32H224.5z"/>
<path class="st2" d="M471,226.3l-12.7-70c-1.5-8-5.3-15.4-11.1-21.1l-40.5-40.5c-4.2-4.2-10-6.6-16-6.6c-12.5,0-22.6,10.1-22.6,22.6
	c0,6,2.4,11.8,6.6,16l36.7,36.7c3,3,4.7,7.1,4.7,11.3v69.6c0,2.5-0.6,4.9-1.7,7.2L400,280l-1.8,5.5c-1-0.6-2-1.4-2.8-2.2l-36.7-36.7
	c-4.2-4.2-10-6.6-16-6.6c-12.5,0-22.6,10.1-22.6,22.6c0,6,2.4,11.8,6.6,16L393,345c4.5,4.5,7,10.6,7,17V408h56l11.4-28.6
	c3-7.6,4.6-15.6,4.6-23.8V237.8C472,233.9,471.7,230.1,471,226.3z"/>
<polygon class="st3" points="400,392 400,408 456,408 462.4,392 "/>
<circle class="st0" cx="404" cy="460" r="12"/>
<path class="st1" d="M467.8,400l7-17.6c3.4-8.6,5.2-17.6,5.2-26.7V237.8c0-4.3-0.4-8.6-1.2-12.9l-12.7-70
	c-1.8-9.7-6.3-18.4-13.3-25.4L412.3,89c-3.5-3.5-7.7-5.9-12.3-7.4V0H0v384h392v16h-24v96h128v-96H467.8z M368,16h16v64.8
	c-6.3,1.4-11.8,4.8-16,9.4V16z M368,131.1c0.3,0.4,0.6,0.8,1,1.2l15,15v113.4l-16-16V131.1z M400,262.1v-98.8l5.7,5.7
	c1.5,1.5,2.3,3.6,2.3,5.7v69.6c0,1.2-0.3,2.5-0.8,3.6L400,262.1z M16,368V16h16v320h280v-16H48V16h304v217.6c-3-1-6.1-1.6-9.4-1.6
	c-7.4,0-14.1,2.8-19.4,7.1c-0.8-1.7-1.7-3.3-2.7-4.9l-5.9-8.9c8.5-9.3,13.5-21.5,13.5-34.4c0-5.5-0.9-10.9-2.6-16.2l-6.4-19.1
	c5.7-8.4,9-18.3,9-28.7c0-5.5-0.9-10.9-2.6-16.2L319,91.7c5.7-8.4,9-18.3,9-28.7c0-5.5-0.9-10.9-2.6-16.2l-5.8-17.4
	c-1-3.1-3.8-5.2-7-5.4c-3.2-0.2-6.3,1.5-7.7,4.4L299.5,39c-6.3,12.6-16,23.1-28.2,30.4C259.9,76.3,246.7,80,233.3,80H224V52.7
	l-24-24l-24,24V80h-9.3c-13.4,0-26.6-3.7-38.1-10.6c-12.1-7.3-21.8-17.8-28.2-30.4l-5.3-10.6c-1.5-2.9-4.5-4.6-7.7-4.4
	c-3.2,0.2-6,2.4-7,5.4l-5.8,17.4C72.9,52,72,57.5,72,63c0,10.4,3.3,20.4,9,28.7l-6.4,19.1C72.9,116,72,121.5,72,127
	c0,10.4,3.3,20.4,9,28.7l-6.4,19.1C72.9,180,72,185.5,72,191c0,12.9,5,25.1,13.5,34.4l-5.9,8.9c-4.9,7.4-7.5,16-7.5,24.9
	c0,24.7,20.1,44.8,44.8,44.8c13.6,0,27-2.2,39.9-6.5l25.1-8.4l18.2,18.2l18.2-18.2l25.1,8.4c12.9,4.3,26.3,6.5,39.9,6.5
	c15.6,0,29.4-8,37.4-20.2c0.1,0.2,0.2,0.3,0.4,0.5l31,31v4.7h-24v16h24h16v-4.7l19.3,19.3c3,3,4.7,7.1,4.7,11.3v6.1H16z
	 M294.3,221.5C273.1,233.6,249,240,224.5,240H224v-16h9.3c16.3,0,32.3-4.4,46.4-12.8c12.7-7.6,23.2-18.1,30.8-30.7
	c1.1,3.4,1.6,6.9,1.6,10.5C312,203.6,305.2,215.2,294.3,221.5z M312,259.2c0,15.9-12.9,28.8-28.8,28.8c-11.8,0-23.6-1.9-34.8-5.6
	l-24.4-8.1V256h0.5c27.2,0,54-7.1,77.5-20.5l5.1,7.7C310.3,247.9,312,253.4,312,259.2z M224,208v-16h0.5c24.3,0,48.4-5.7,70.1-16.6
	c-6,8.9-13.9,16.4-23.2,22c-11.5,6.9-24.7,10.6-38.1,10.6H224z M294.3,157.5C273.1,169.6,249,176,224.5,176H224v-16h9.3
	c16.3,0,32.3-4.4,46.4-12.8c12.7-7.6,23.2-18.1,30.8-30.7c1.1,3.4,1.6,6.9,1.6,10.5C312,139.6,305.2,151.2,294.3,157.5z M224,144
	v-16h0.5c24.3,0,48.4-5.7,70.1-16.6c-6,8.9-13.9,16.4-23.2,22c-11.5,6.9-24.7,10.6-38.1,10.6H224z M294.3,93.5
	C273.1,105.6,249,112,224.5,112H224V96h9.3c16.3,0,32.3-4.4,46.4-12.8c12.7-7.6,23.2-18.1,30.8-30.7c1.1,3.4,1.6,6.9,1.6,10.5
	C312,75.6,305.2,87.2,294.3,93.5z M208,59.3v217.4l-8,8l-8-8V59.3l8-8L208,59.3z M175.5,240c-24.5,0-48.6-6.4-69.8-18.5
	C94.8,215.2,88,203.6,88,191c0-3.6,0.5-7.1,1.6-10.5c7.6,12.6,18.1,23.1,30.8,30.7c14,8.4,30,12.8,46.4,12.8h9.3v16H175.5z M176,256
	v18.2l-24.4,8.1c-11.3,3.8-23,5.6-34.8,5.6c-15.9,0-28.8-12.9-28.8-28.8c0-5.7,1.7-11.2,4.8-16l5.1-7.7
	c23.6,13.4,50.4,20.5,77.5,20.5H176z M166.7,208c-13.4,0-26.6-3.7-38.1-10.6c-9.3-5.6-17.2-13.1-23.2-22
	c21.7,10.8,45.7,16.6,70.1,16.6h0.5v16H166.7z M175.5,176c-24.5,0-48.6-6.4-69.8-18.5C94.8,151.2,88,139.6,88,127
	c0-3.6,0.5-7.1,1.6-10.5c7.6,12.6,18.1,23.1,30.8,30.7c14,8.4,30,12.8,46.4,12.8h9.3v16H175.5z M166.7,144
	c-13.4,0-26.6-3.7-38.1-10.6c-9.3-5.6-17.2-13.1-23.2-22c21.7,10.8,45.7,16.6,70.1,16.6h0.5v16H166.7z M175.5,112
	c-24.5,0-48.6-6.4-69.8-18.5C94.8,87.2,88,75.6,88,63c0-3.6,0.5-7.1,1.6-10.5c7.6,12.6,18.1,23.1,30.8,30.7
	c14,8.4,30,12.8,46.4,12.8h9.3v16H175.5z M480,480h-96v-64h96V480z"/>
</svg>
