<svg id="Capa_1" data-name="Capa 1" xmlns="http://www.w3.org/2000/svg" viewBox="0 0 511 503.26"><defs><style>.cls-1{fill:#fff;}.cls-2{fill:none;}</style></defs><title>objetivo</title><path class="cls-1" d="M378.7,313.14l67.35-66.65c25.15-25.15,73.53,6.59,47.39,37.33l-81.55,95.95a57.35,57.35,0,0,1-10.91,9.9c-13.14,8.4-28.8,11.2-44.22,11.2h-121a226.92,226.92,0,0,0-26.19,1.51l-34.81,3.91-72.19-70.05s41-77.34,121.29-55.11A173,173,0,0,0,270,287.27h79.53c37.44,0,37.74,59.49-.31,59.49H280" transform="translate(0 -3.99)"/><path class="cls-1" d="M127.31,497.46,196,427a0,0,0,0,0,0-.07L79.45,313.83s0,0-.07,0l-69.33,72Z" transform="translate(0 -3.99)"/><path class="cls-1" d="M92.46,103.62a42.9,42.9,0,0,0-38.8,42.7V192A14.28,14.28,0,0,0,68,206.28h97.94A14.28,14.28,0,0,0,180.18,192V146.32a42.91,42.91,0,0,0-38.85-42.71" transform="translate(0 -3.99)"/><path class="cls-1" d="M164.85,62.24A47.93,47.93,0,1,1,116.92,14.3,47.93,47.93,0,0,1,164.85,62.24Z" transform="translate(0 -3.99)"/><path class="cls-1" d="M219,103.62a42.9,42.9,0,0,0-38.81,42.7V192a14.28,14.28,0,0,0,14.29,14.28h98A14.28,14.28,0,0,0,306.7,192V146.32a42.91,42.91,0,0,0-38.85-42.71" transform="translate(0 -3.99)"/><path class="cls-1" d="M291.37,62.24A47.93,47.93,0,1,1,243.44,14.3,47.93,47.93,0,0,1,291.37,62.24Z" transform="translate(0 -3.99)"/><path class="cls-1" d="M345.51,103.62a42.9,42.9,0,0,0-38.81,42.7V192A14.28,14.28,0,0,0,321,206.28h97.94A14.28,14.28,0,0,0,433.22,192V146.32a42.91,42.91,0,0,0-38.85-42.71" transform="translate(0 -3.99)"/><path class="cls-1" d="M417.89,62.24A47.93,47.93,0,1,1,370,14.3,47.93,47.93,0,0,1,417.89,62.24Z" transform="translate(0 -3.99)"/><path class="cls-2" d="M498.93,239.1a46.25,46.25,0,0,0-28.55-12,40.84,40.84,0,0,0-31.4,12l-56.82,56.22a37.47,37.47,0,0,0-3.85-5.48c-7-8.3-17.21-12.87-28.78-12.87H270a163.28,163.28,0,0,1-43.49-5.78c-36.12-10-70.64-2.69-99.81,21.12a145,145,0,0,0-26,27.9L86.45,306.36a10.16,10.16,0,0,0-7-2.86h-.06a10.17,10.17,0,0,0-7.21,3.1l-69.33,72a10.06,10.06,0,0,0,.31,14.26L120.38,504.48a10.06,10.06,0,0,0,14.13-.26l68.68-70.47a10.09,10.09,0,0,0-.2-14.3l-6-5.8,13.69-1.54a216,216,0,0,1,25-1.45h121c19.66,0,36.36-4.3,49.64-12.79l.33-.21A67.23,67.23,0,0,0,419.55,386l81.55-95.94C515.06,273.66,514.19,253.17,498.93,239.1Zm-371.88,244L24.3,385.24l55.35-57.46L181.8,426.9Zm358.73-206L404.23,373a47.09,47.09,0,0,1-8.82,8c-10,6.31-23,9.52-38.65,9.52h-121a237,237,0,0,0-27.31,1.58l-30.09,3.38-63-61.14a125.09,125.09,0,0,1,24.08-26.51c24.25-19.79,51.75-25.61,81.74-17.31a183.42,183.42,0,0,0,48.85,6.5h79.53c14.29,0,18.1,12.38,18.1,19.69a21.78,21.78,0,0,1-4.7,13.95c-3.25,3.81-7.86,5.75-13.71,5.75H280a10.05,10.05,0,0,0,0,20.1h69.24c11.69,0,22-4.56,29-12.84a41.28,41.28,0,0,0,9.47-25.61l65.44-64.76c9.35-9.35,24-7,32.14.54C489.52,257.78,495.21,266,485.78,277.05Z" transform="translate(0 -3.99)"/><path class="cls-2" d="M68,216.08h97.94a24.16,24.16,0,0,0,14.29-4.66,24.13,24.13,0,0,0,14.28,4.66h98a24.13,24.13,0,0,0,14.28-4.66A24.16,24.16,0,0,0,321,216.08h97.94a24.37,24.37,0,0,0,24.34-24.34V146.06A52.69,52.69,0,0,0,414.6,98.94a58,58,0,1,0-89.28,0,52.51,52.51,0,0,0-18.62,16,52.51,52.51,0,0,0-18.62-16,58,58,0,1,0-89.28,0,52.51,52.51,0,0,0-18.62,16,52.51,52.51,0,0,0-18.62-16,58,58,0,1,0-89.28,0,52.71,52.71,0,0,0-28.67,47.13v45.67A24.37,24.37,0,0,0,68,216.08Zm302-192A37.88,37.88,0,1,1,332.08,62,37.92,37.92,0,0,1,370,24.1Zm-26.11,89.62a57.75,57.75,0,0,0,52.22,0,32.67,32.67,0,0,1,27.1,32.34v45.68a4.24,4.24,0,0,1-4.24,4.23H321a4.23,4.23,0,0,1-4.23-4.23V146.06A32.65,32.65,0,0,1,343.85,113.72ZM243.44,24.1A37.88,37.88,0,1,1,205.56,62,37.92,37.92,0,0,1,243.44,24.1Zm-26.11,89.62a57.75,57.75,0,0,0,52.22,0,32.67,32.67,0,0,1,27.1,32.34v45.68a4.24,4.24,0,0,1-4.23,4.23h-98a4.24,4.24,0,0,1-4.24-4.23V146.06A32.67,32.67,0,0,1,217.33,113.72ZM116.92,24.1A37.88,37.88,0,1,1,79,62,37.93,37.93,0,0,1,116.92,24.1Zm-53.21,122a32.67,32.67,0,0,1,27.1-32.34,57.75,57.75,0,0,0,52.22,0,32.67,32.67,0,0,1,27.1,32.34v45.68a4.24,4.24,0,0,1-4.24,4.23H68a4.24,4.24,0,0,1-4.24-4.23Z" transform="translate(0 -3.99)"/></svg>