<?xml version="1.0" encoding="utf-8"?>
<!-- Generator: Adobe Illustrator 23.0.0, SVG Export Plug-In . SVG Version: 6.00 Build 0)  -->
<svg version="1.1" id="Capa_1" xmlns="http://www.w3.org/2000/svg" xmlns:xlink="http://www.w3.org/1999/xlink" x="0px" y="0px"
	 viewBox="0 0 900 350" style="enable-background:new 0 0 900 350;" xml:space="preserve">
<style type="text/css">
	.st0{fill:#2C2727;}
	.st1{fill:#6900FF;}
	.st2{fill:#DE6262;}
	.st3{fill:#FFFFFF;}
</style>
<g>
	<g>
		<path class="st0" d="M369.5,132.1h16.6c2.8,0,5.1,0.9,6.8,2.6c1.8,1.8,2.6,4,2.6,6.8c0,2.6-0.9,4.9-2.6,6.8
			c-1.8,1.9-4,2.8-6.8,2.8h-25.5c-2.8,0-5.1-0.9-7.1-2.6s-3-3.9-3-6.6V77.5c0-2.8,0.9-5.1,2.7-6.8c1.8-1.7,4.1-2.6,6.9-2.6
			c2.6,0,4.9,0.9,6.7,2.6c1.9,1.7,2.7,4,2.7,6.8L369.5,132.1L369.5,132.1z"/>
		<path class="st0" d="M400.7,77.5c0-2.6,0.9-4.9,2.8-6.6s4.1-2.7,6.8-2.7c2.7,0,5,0.9,6.8,2.7s2.7,4,2.7,6.6v47.7
			c0,1.1,0.3,2.2,0.9,3.2c0.6,0.9,1.3,1.8,2.2,2.5c0.9,0.7,1.9,1.2,2.9,1.6c1.1,0.4,2.1,0.6,3.1,0.6c2.2,0,4.1-0.7,5.8-2.1
			c1.6-1.4,2.6-3.2,2.7-5.4v-48c0-2.6,0.9-4.9,2.8-6.6c1.9-1.8,4.1-2.7,6.8-2.7s4.9,0.9,6.7,2.7c1.9,1.8,2.7,4,2.7,6.6v49.7
			c0,3.6-0.8,7-2.3,10c-1.6,3-3.6,5.6-6.1,7.8s-5.4,3.9-8.8,5.1c-3.4,1.2-6.8,1.8-10.3,1.8c-3.6,0-7.1-0.6-10.4-1.8s-6.4-2.9-9-5.1
			c-2.6-2.2-4.7-4.8-6.4-7.8c-1.6-3-2.4-6.4-2.4-10L400.7,77.5L400.7,77.5z"/>
		<path class="st0" d="M517.9,92c-1.9-1.5-4.1-2.6-6.6-3.6c-2.5-0.9-5-1.5-7.6-1.6c-3.3,0.1-6.4,0.9-9.1,2.1
			c-2.8,1.2-5.2,2.9-7.3,4.9c-2.1,2-3.6,4.4-4.9,7.1s-1.8,5.7-1.8,8.9c0,3.1,0.6,5.9,2,8.6c1.3,2.6,3.1,5.1,5.2,7.1
			c2.1,2.1,4.6,3.7,7.4,5c2.7,1.3,5.6,2.1,8.4,2.4c2.5,0,5-0.5,7.5-1.4s4.7-2.1,6.6-3.6c2-1.8,4.3-2.6,6.8-2.6
			c2.6,0,4.9,0.9,6.8,2.7c1.9,1.8,2.8,4.1,2.8,6.8c0,2.1-0.5,3.9-1.6,5.1c-1.1,1.3-2,2.4-2.8,3.1c-0.4,0.4-1.2,1.1-2.5,2
			c-1.3,1-3,2-5.2,3.1s-4.9,2-7.9,2.8c-3.1,0.8-6.6,1.2-10.6,1.2c-5.8,0-11.2-1.1-16.4-3.4c-5.1-2.2-9.5-5.3-13.3-9.1
			s-6.8-8.3-8.9-13.4c-2.2-5.1-3.3-10.6-3.3-16.4s1.1-11.2,3.3-16.4c2.2-5.1,5.2-9.6,8.9-13.4c3.8-3.8,8.2-6.8,13.3-9
			c5.1-2.2,10.6-3.3,16.4-3.3c4,0,7.6,0.4,10.6,1.2c3.1,0.8,5.7,1.7,7.9,2.8s3.9,2.1,5.1,3.1s2.1,1.6,2.4,1.9
			c0.9,0.8,1.9,1.9,2.9,3.1c1.1,1.3,1.6,3,1.6,5.2c0,2.6-0.9,4.9-2.8,6.7c-1.9,1.9-4.1,2.7-6.8,2.7C522.1,94.6,519.8,93.7,517.9,92z
			"/>
		<path class="st0" d="M542.3,77.5c0-2.6,0.9-4.9,2.8-6.6s4.1-2.7,6.8-2.7s4.9,0.9,6.7,2.7c1.9,1.8,2.7,4,2.7,6.6v20.6l15.5-25.5
			c1.9-2.9,4.4-4.4,7.8-4.4c1.8,0,3.5,0.5,5.1,1.4c1.5,0.9,2.6,2.1,3.4,3.5c0.8,1.4,1.2,2.9,1.2,4.4c0,1.9-0.6,3.6-1.6,4.9
			L575.9,110l16.9,26.9c0.4,0.7,0.8,1.6,1.1,2.4c0.3,0.9,0.4,1.7,0.4,2.5c0,1.6-0.4,3.1-1.2,4.6s-1.9,2.6-3.4,3.6
			c-0.7,0.4-1.6,0.8-2.5,1.1s-1.9,0.4-2.6,0.4c-1.6,0-3.1-0.4-4.5-1.1c-1.4-0.7-2.5-1.8-3.4-3.2l-15.4-25.3v20.4
			c0,2.6-0.9,4.9-2.7,6.6c-1.9,1.8-4.1,2.7-6.7,2.7s-4.9-0.9-6.8-2.7s-2.8-4-2.8-6.6V77.5L542.3,77.5z M557.6,115.6
			c0,0.1,0.1,0.3,0.2,0.4L557.6,115.6z"/>
	</g>
</g>
<polygon class="st1" points="57.7,47.6 57.7,70.6 57.7,185.6 80.7,156.9 80.7,70.6 265.7,70.6 265.7,278.6 141,278.6 115.3,301.6 
	265.7,301.6 288.7,301.6 288.7,278.6 288.7,70.6 288.7,47.6 "/>
<path class="st2" d="M218.7,216.8H122c-5.5,0-10-4.5-10-10v-68c0-5.5,4.5-10,10-10h96.7c5.5,0,10,4.5,10,10v68
	C228.7,212.3,224.2,216.8,218.7,216.8z"/>
<g>
	<path class="st3" d="M151,139.3h64.9c0.9,0,1.6,0.7,1.6,1.6v0.6c0,0.9-0.7,1.6-1.6,1.6h-57.3"/>
	<path class="st3" d="M158.6,204.2h57.3c0.9,0,1.6,0.7,1.6,1.6l0,0c0,1.2-1,2.2-2.2,2.2H151"/>
	<path class="st3" d="M213.7,205.4v-64.2c0-1,0.8-1.9,1.9-1.9l0,0c1,0,1.9,0.8,1.9,1.9v64.2c0,1-0.8,1.9-1.9,1.9l0,0
		C214.6,207.2,213.7,206.4,213.7,205.4z"/>
</g>
<path class="st3" d="M180,169.8h-5.9v-5.9c0-0.9-0.8-1.7-1.7-1.7H169c-0.9,0-1.7,0.8-1.7,1.7v5.9h-5.1c-0.9,0-1.7,0.8-1.7,1.7v3.4
	c0,0.9,0.8,1.7,1.7,1.7h5.1v5.1c0,0.9,0.8,1.7,1.7,1.7h3.4c0.9,0,1.7-0.8,1.7-1.7v-5.1h5.9c0.9,0,1.7-0.8,1.7-1.7v-3.4
	C181.7,170.6,181,169.8,180,169.8z"/>
<path class="st2" d="M195.3,110h-2.2c-0.2,0-0.5,0-0.7,0.1c-0.2-0.1-0.4-0.1-0.7-0.1h-44.3h-1.8h-0.4c-0.9,0-1.7,0.8-1.7,1.7v15.6
	h5.5v-11.8h42.2v11.8h5.5v-15.6C196.9,110.8,196.2,110,195.3,110z"/>
<path class="st2" d="M192.5,235H66.8l14.3-5h125.7"/>
<path class="st2" d="M177.5,245H51.8l14.3-5h125.7"/>
<path class="st2" d="M157.5,255H31.8l14.3-5h125.7"/>
<g>
	<path class="st1" d="M424.4,221.7c-2.6-2-5.5-3.5-8.7-4.6c-3.2-1.2-6.7-2-9.9-2c-4.4,0.3-8.4,1.2-12.2,2.9c-3.8,1.7-7,3.8-9.6,6.4
		c-2.6,2.6-4.9,5.8-6.4,9.6s-2.3,7.5-2.3,11.6s0.9,7.8,2.6,11.3s4.1,6.7,7,9.3c2.9,2.6,6.1,4.9,9.6,6.7c3.8,1.7,7.3,2.6,11,3.2
		c3.2,0,6.7-0.6,9.9-2c3.5-1.2,6.4-2.9,8.7-4.6c2.6-2.3,5.5-3.5,9-3.5s6.4,1.2,9,3.5c2.3,2.3,3.8,5.2,3.8,9c0,2.9-0.6,5.2-2,6.7
		c-1.5,1.7-2.6,3.2-3.8,4.1c-0.6,0.6-1.5,1.5-3.2,2.6c-1.7,1.2-4.1,2.6-7,4.1s-6.4,2.6-10.4,3.8c-4.1,1.2-8.7,1.7-13.9,1.7
		c-7.5,0-14.8-1.5-21.5-4.4s-12.5-7-17.4-11.9s-9-11-11.9-17.7s-4.4-13.9-4.4-21.8c0-7.5,1.5-14.8,4.4-21.5s7-12.5,11.9-17.7
		s10.7-9,17.4-11.9s13.9-4.4,21.5-4.4c5.2,0,10.2,0.6,13.9,1.7c4.1,1.2,7.5,2.3,10.4,3.8s5.2,2.9,7,4.1c1.7,1.5,2.6,2,3.2,2.6
		c1.2,1.2,2.3,2.3,3.8,4.1c1.5,1.7,2,4.1,2,7c0,3.5-1.2,6.4-3.8,8.7c-2.6,2.3-5.5,3.8-9,3.8C429.9,225.1,427,224,424.4,221.7z"/>
	<path class="st1" d="M481.6,274.5h21.8c3.8,0,6.7,1.2,9,3.5c2.3,2.3,3.5,5.2,3.5,9c0,3.5-1.2,6.4-3.5,9s-5.2,3.8-9,3.8h-33.7
		c-3.8,0-6.7-1.2-9.6-3.5c-2.6-2.3-3.8-5.2-3.8-8.7v-85c0-3.8,1.2-6.7,3.5-9s5.5-3.5,9-3.5s6.4,1.2,9,3.5c2.3,2.3,3.8,5.2,3.8,9
		V274.5z"/>
	<path class="st1" d="M526.8,193.8c2.3-2.3,5.5-3.5,9-3.5s6.7,1.2,9,3.5s3.5,5.2,3.5,8.7v85.3c0,3.5-1.2,6.4-3.5,8.7
		c-2.3,2.3-5.5,3.5-9,3.5s-6.4-1.2-9-3.5c-2.3-2.3-3.8-5.2-3.8-8.7v-85.3C523.3,199,524.5,196.1,526.8,193.8z"/>
	<path class="st1" d="M632.7,190.3c3.8,0,6.7,0.9,8.4,2.6c2,1.7,2.9,4.1,2.9,7v44.7l29.9-42.9c2-2.9,4.4-5.5,7.3-7.8
		s6.1-3.5,9.6-3.5c3.8,0,6.7,0.9,8.7,2.6c2,1.7,3.2,4.1,3.2,7c0,1.5-0.3,2.9-0.9,4.6c-0.6,1.5-1.2,2.9-2,3.8l-55.4,81.8
		c-2,2.9-4.1,5.5-6.4,7.3s-4.9,2.9-8.4,2.9c-2,0-3.5-0.3-4.9-1.2c-1.2-0.9-2.3-1.7-3.2-2.9c-0.9-1.2-1.5-2.3-1.7-3.8
		c-0.3-1.2-0.6-2.3-0.6-3.5v-45.8L587.7,291c-0.6,0.9-1.2,1.7-2,2.9c-0.9,1.2-1.7,2-3.2,2.9c-1.2,0.9-2.6,1.7-4.4,2.3
		c-1.7,0.6-4.1,0.9-6.4,0.9c-3.5,0-6.4-0.9-8.1-2.9c-2-1.7-2.9-4.1-2.9-6.7c0-1.2,0.3-2.6,0.9-4.1c0.6-1.5,1.2-2.9,2.3-4.4
		l53.1-81.8c2.3-3.5,4.6-6.1,7-7.8C625.7,191.2,628.9,190.3,632.7,190.3z"/>
	<path class="st1" d="M710.2,193.8c2.3-2.3,5.5-3.5,9-3.5s6.7,1.2,9,3.5s3.5,5.2,3.5,8.7v85.3c0,3.5-1.2,6.4-3.5,8.7
		c-2.3,2.3-5.5,3.5-9,3.5s-6.4-1.2-9-3.5c-2.3-2.3-3.8-5.2-3.8-8.7v-85.3C706.7,199,707.8,196.1,710.2,193.8z"/>
	<path class="st1" d="M815.5,221.7c-2.6-2-5.5-3.5-8.7-4.6c-3.2-1.2-6.7-2-10.2-2c-4.4,0.3-8.4,1.2-12.2,2.9s-7,3.8-9.6,6.4
		c-2.6,2.6-4.9,5.8-6.4,9.6s-2.3,7.5-2.3,11.6s0.9,7.8,2.6,11.3c1.7,3.5,4.1,6.7,7,9.3c2.9,2.6,6.1,4.9,9.9,6.7
		c3.8,1.7,7.3,2.6,11,3.2c3.2,0,6.7-0.6,9.9-2c3.2-1.2,6.4-2.9,8.7-4.6c2.6-2.3,5.5-3.5,9-3.5s6.4,1.2,9,3.5c2.3,2.3,3.8,5.2,3.8,9
		c0,2.9-0.6,5.2-2,6.7c-1.5,1.7-2.6,3.2-3.8,4.1c-0.6,0.6-1.5,1.5-3.2,2.6c-1.7,1.5-4.1,2.6-7,4.1s-6.4,2.6-10.4,3.8
		c-4.1,1.2-8.7,1.7-14.2,1.7c-7.5,0-14.8-1.5-21.5-4.4s-12.5-7-17.7-11.9c-4.9-4.9-9-11-11.9-17.7s-4.4-13.9-4.4-21.8
		c0-7.5,1.5-14.8,4.4-21.5s7-12.5,11.9-17.7s10.7-9,17.7-11.9c6.7-2.9,13.9-4.4,21.5-4.4c5.2,0,10.2,0.6,14.2,1.7
		c4.1,1.2,7.5,2.3,10.4,3.8s5.2,2.9,6.7,4.1c1.5,1.2,2.6,2,3.2,2.6c1.2,1.2,2.3,2.3,3.8,4.1c1.5,1.7,2,4.1,2,7
		c0,3.5-1.2,6.4-3.8,8.7c-2.3,2.3-5.5,3.8-9,3.8C821,225.1,818.1,224,815.5,221.7z"/>
</g>
</svg>
