<?xml version="1.0" encoding="utf-8"?>
<!-- Generator: Adobe Illustrator 22.1.0, SVG Export Plug-In . SVG Version: 6.00 Build 0)  -->
<svg version="1.1" id="Capa_1" xmlns="http://www.w3.org/2000/svg" xmlns:xlink="http://www.w3.org/1999/xlink" x="0px" y="0px"
	 viewBox="0 0 440 420" style="enable-background:new 0 0 440 420;" xml:space="preserve">
<style type="text/css">
	.st0{fill:#2C2727;}
	.st1{fill:#6900FF;}
	.st2{fill:#A81F1F;}
	.st3{fill:#FFFFFF;}
</style>
<g>
	<g>
		<path class="st0" d="M93.2,367.8h7.5c1.3,0,2.3,0.4,3.1,1.2c0.8,0.8,1.2,1.8,1.2,3.1c0,1.2-0.4,2.2-1.2,3.1
			c-0.8,0.9-1.8,1.3-3.1,1.3H89.1c-1.3,0-2.4-0.4-3.3-1.2s-1.4-1.8-1.4-3V343c0-1.3,0.4-2.3,1.2-3.1c0.8-0.8,1.9-1.2,3.1-1.2
			c1.2,0,2.2,0.4,3.1,1.2c0.8,0.8,1.3,1.8,1.3,3.1V367.8z"/>
		<path class="st0" d="M107.3,343c0-1.2,0.4-2.2,1.3-3s1.9-1.2,3.1-1.2c1.2,0,2.3,0.4,3.1,1.2c0.8,0.8,1.2,1.8,1.2,3v21.7
			c0,0.5,0.1,1,0.4,1.5c0.3,0.4,0.6,0.8,1,1.1s0.8,0.6,1.3,0.7c0.5,0.2,1,0.3,1.4,0.3c1,0,1.9-0.3,2.6-1c0.8-0.7,1.2-1.5,1.2-2.4
			V343c0-1.2,0.4-2.2,1.3-3s1.9-1.2,3.1-1.2c1.2,0,2.2,0.4,3,1.2c0.8,0.8,1.3,1.8,1.3,3v22.6c0,1.7-0.4,3.2-1,4.5
			c-0.7,1.4-1.6,2.5-2.8,3.5c-1.2,1-2.5,1.8-4,2.3c-1.5,0.5-3.1,0.8-4.7,0.8c-1.6,0-3.2-0.3-4.8-0.8c-1.5-0.5-2.9-1.3-4.1-2.3
			c-1.2-1-2.2-2.2-2.9-3.5c-0.7-1.4-1.1-2.9-1.1-4.5V343z"/>
		<path class="st0" d="M160.6,349.6c-0.9-0.7-1.9-1.2-3-1.6c-1.1-0.4-2.3-0.7-3.4-0.7c-1.5,0.1-2.9,0.4-4.2,1
			c-1.3,0.6-2.4,1.3-3.3,2.2c-0.9,0.9-1.7,2-2.2,3.3s-0.8,2.6-0.8,4c0,1.4,0.3,2.7,0.9,3.9s1.4,2.3,2.4,3.2c1,0.9,2.1,1.7,3.4,2.3
			c1.3,0.6,2.5,0.9,3.8,1.1c1.1,0,2.3-0.2,3.4-0.7c1.1-0.4,2.2-1,3-1.6c0.9-0.8,1.9-1.2,3.1-1.2c1.2,0,2.2,0.4,3.1,1.2
			c0.8,0.8,1.3,1.8,1.3,3.1c0,1-0.2,1.8-0.7,2.3c-0.5,0.6-0.9,1.1-1.3,1.4c-0.2,0.2-0.5,0.5-1.1,0.9c-0.6,0.5-1.4,0.9-2.4,1.4
			s-2.2,0.9-3.6,1.3c-1.4,0.4-3,0.6-4.9,0.6c-2.6,0-5.1-0.5-7.4-1.5c-2.3-1-4.3-2.4-6.1-4.1c-1.7-1.7-3.1-3.8-4.1-6.1
			s-1.5-4.8-1.5-7.5c0-2.6,0.5-5.1,1.5-7.4s2.4-4.3,4.1-6.1s3.7-3.1,6.1-4.1c2.3-1,4.8-1.5,7.4-1.5c1.8,0,3.5,0.2,4.9,0.6
			s2.6,0.8,3.6,1.3c1,0.5,1.8,1,2.4,1.4c0.6,0.5,0.9,0.7,1.1,0.9c0.4,0.4,0.8,0.8,1.3,1.4c0.5,0.6,0.7,1.4,0.7,2.4
			c0,1.2-0.4,2.2-1.3,3c-0.9,0.8-1.9,1.3-3.1,1.3C162.6,350.8,161.5,350.4,160.6,349.6z"/>
		<path class="st0" d="M171.7,343c0-1.2,0.4-2.2,1.3-3c0.8-0.8,1.9-1.2,3.1-1.2c1.2,0,2.2,0.4,3.1,1.2c0.8,0.8,1.3,1.8,1.3,3v9.4
			l7-11.6c0.8-1.3,2-2,3.5-2c0.8,0,1.6,0.2,2.4,0.7c0.7,0.4,1.2,1,1.6,1.6c0.4,0.6,0.5,1.3,0.5,2c0,0.9-0.3,1.6-0.8,2.3l-7.6,12.5
			l7.7,12.3c0.2,0.3,0.4,0.7,0.5,1.1c0.1,0.4,0.2,0.8,0.2,1.1c0,0.7-0.2,1.4-0.5,2.1c-0.4,0.7-0.9,1.2-1.6,1.6
			c-0.3,0.2-0.7,0.4-1.1,0.5c-0.4,0.1-0.8,0.2-1.2,0.2c-0.7,0-1.4-0.2-2-0.5c-0.6-0.3-1.1-0.8-1.5-1.5l-7-11.5v9.3
			c0,1.2-0.4,2.2-1.3,3c-0.8,0.8-1.9,1.2-3.1,1.2c-1.2,0-2.2-0.4-3.1-1.2c-0.9-0.8-1.3-1.8-1.3-3V343z M178.7,360.3
			c0,0.1,0,0.1,0.1,0.2L178.7,360.3z"/>
	</g>
	<g>
		<path class="st1" d="M226.1,348.6c-0.9-0.7-1.9-1.2-3-1.6c-1.1-0.4-2.3-0.7-3.4-0.7c-1.5,0.1-2.9,0.4-4.2,1
			c-1.3,0.6-2.4,1.3-3.3,2.2c-0.9,0.9-1.7,2-2.2,3.3s-0.8,2.6-0.8,4c0,1.4,0.3,2.7,0.9,3.9s1.4,2.3,2.4,3.2c1,0.9,2.1,1.7,3.3,2.3
			c1.3,0.6,2.5,0.9,3.8,1.1c1.1,0,2.3-0.2,3.4-0.7c1.2-0.4,2.2-1,3-1.6c0.9-0.8,1.9-1.2,3.1-1.2c1.2,0,2.2,0.4,3.1,1.2
			c0.8,0.8,1.3,1.8,1.3,3.1c0,1-0.2,1.8-0.7,2.3c-0.5,0.6-0.9,1.1-1.3,1.4c-0.2,0.2-0.5,0.5-1.1,0.9s-1.4,0.9-2.4,1.4
			s-2.2,0.9-3.6,1.3c-1.4,0.4-3,0.6-4.8,0.6c-2.6,0-5.1-0.5-7.4-1.5c-2.3-1-4.3-2.4-6-4.1c-1.7-1.7-3.1-3.8-4.1-6.1
			s-1.5-4.8-1.5-7.5c0-2.6,0.5-5.1,1.5-7.4s2.4-4.3,4.1-6.1s3.7-3.1,6-4.1c2.3-1,4.8-1.5,7.4-1.5c1.8,0,3.5,0.2,4.8,0.6
			c1.4,0.4,2.6,0.8,3.6,1.3c1,0.5,1.8,1,2.4,1.4c0.6,0.5,0.9,0.7,1.1,0.9c0.4,0.4,0.8,0.8,1.3,1.4c0.5,0.6,0.7,1.4,0.7,2.4
			c0,1.2-0.4,2.2-1.3,3c-0.9,0.8-1.9,1.3-3.1,1.3C228,349.8,227,349.4,226.1,348.6z"/>
		<path class="st1" d="M245.8,366.8h7.5c1.3,0,2.3,0.4,3.1,1.2c0.8,0.8,1.2,1.8,1.2,3.1c0,1.2-0.4,2.2-1.2,3.1
			c-0.8,0.9-1.8,1.3-3.1,1.3h-11.6c-1.3,0-2.3-0.4-3.3-1.2c-0.9-0.8-1.3-1.8-1.3-3V342c0-1.3,0.4-2.3,1.2-3.1
			c0.8-0.8,1.9-1.2,3.1-1.2c1.2,0,2.2,0.4,3.1,1.2c0.8,0.8,1.3,1.8,1.3,3.1V366.8z"/>
		<path class="st1" d="M261.4,339c0.8-0.8,1.9-1.2,3.1-1.2c1.2,0,2.3,0.4,3.1,1.2s1.2,1.8,1.2,3v29.4c0,1.2-0.4,2.2-1.2,3
			c-0.8,0.8-1.9,1.2-3.1,1.2c-1.2,0-2.2-0.4-3.1-1.2c-0.8-0.8-1.3-1.8-1.3-3V342C260.2,340.8,260.6,339.8,261.4,339z"/>
		<path class="st1" d="M297.9,337.8c1.3,0,2.3,0.3,2.9,0.9c0.7,0.6,1,1.4,1,2.4v15.4l10.3-14.8c0.7-1,1.5-1.9,2.5-2.7
			c1-0.8,2.1-1.2,3.3-1.2c1.3,0,2.3,0.3,3,0.9s1.1,1.4,1.1,2.4c0,0.5-0.1,1-0.3,1.6c-0.2,0.5-0.4,1-0.7,1.3l-19.1,28.2
			c-0.7,1-1.4,1.9-2.2,2.5s-1.7,1-2.9,1c-0.7,0-1.2-0.1-1.7-0.4c-0.4-0.3-0.8-0.6-1.1-1c-0.3-0.4-0.5-0.8-0.6-1.3
			c-0.1-0.4-0.2-0.8-0.2-1.2V356l-10.8,16.5c-0.2,0.3-0.4,0.6-0.7,1c-0.3,0.4-0.6,0.7-1.1,1c-0.4,0.3-0.9,0.6-1.5,0.8
			c-0.6,0.2-1.4,0.3-2.2,0.3c-1.2,0-2.2-0.3-2.8-1c-0.7-0.6-1-1.4-1-2.3c0-0.4,0.1-0.9,0.3-1.4c0.2-0.5,0.4-1,0.8-1.5l18.3-28.2
			c0.8-1.2,1.6-2.1,2.4-2.7C295.5,338.1,296.6,337.8,297.9,337.8z"/>
		<path class="st1" d="M324.6,339c0.8-0.8,1.9-1.2,3.1-1.2c1.2,0,2.3,0.4,3.1,1.2c0.8,0.8,1.2,1.8,1.2,3v29.4c0,1.2-0.4,2.2-1.2,3
			c-0.8,0.8-1.9,1.2-3.1,1.2c-1.2,0-2.2-0.4-3.1-1.2c-0.8-0.8-1.3-1.8-1.3-3V342C323.4,340.8,323.8,339.8,324.6,339z"/>
		<path class="st1" d="M360.9,348.6c-0.9-0.7-1.9-1.2-3-1.6c-1.1-0.4-2.3-0.7-3.5-0.7c-1.5,0.1-2.9,0.4-4.2,1
			c-1.3,0.6-2.4,1.3-3.3,2.2c-0.9,0.9-1.7,2-2.2,3.3s-0.8,2.6-0.8,4c0,1.4,0.3,2.7,0.9,3.9s1.4,2.3,2.4,3.2c1,0.9,2.1,1.7,3.4,2.3
			c1.3,0.6,2.5,0.9,3.8,1.1c1.1,0,2.3-0.2,3.4-0.7c1.1-0.4,2.2-1,3-1.6c0.9-0.8,1.9-1.2,3.1-1.2c1.2,0,2.2,0.4,3.1,1.2
			c0.8,0.8,1.3,1.8,1.3,3.1c0,1-0.2,1.8-0.7,2.3c-0.5,0.6-0.9,1.1-1.3,1.4c-0.2,0.2-0.5,0.5-1.1,0.9c-0.6,0.5-1.4,0.9-2.4,1.4
			s-2.2,0.9-3.6,1.3c-1.4,0.4-3,0.6-4.9,0.6c-2.6,0-5.1-0.5-7.4-1.5c-2.3-1-4.3-2.4-6.1-4.1c-1.7-1.7-3.1-3.8-4.1-6.1
			s-1.5-4.8-1.5-7.5c0-2.6,0.5-5.1,1.5-7.4s2.4-4.3,4.1-6.1s3.7-3.1,6.1-4.1c2.3-1,4.8-1.5,7.4-1.5c1.8,0,3.5,0.2,4.9,0.6
			c1.4,0.4,2.6,0.8,3.6,1.3c1,0.5,1.8,1,2.3,1.4s0.9,0.7,1.1,0.9c0.4,0.4,0.8,0.8,1.3,1.4c0.5,0.6,0.7,1.4,0.7,2.4
			c0,1.2-0.4,2.2-1.3,3c-0.8,0.8-1.9,1.3-3.1,1.3C362.8,349.8,361.8,349.4,360.9,348.6z"/>
	</g>
</g>
<polygon class="st1" points="109.9,30.6 109.9,53.6 109.9,168.6 132.9,139.9 132.9,53.6 317.9,53.6 317.9,261.6 193.2,261.6 
	167.5,284.6 317.9,284.6 340.9,284.6 340.9,261.6 340.9,53.6 340.9,30.6 "/>
<path class="st2" d="M270.9,199.8h-96.7c-5.5,0-10-4.5-10-10v-68c0-5.5,4.5-10,10-10h96.7c5.5,0,10,4.5,10,10v68
	C280.9,195.3,276.4,199.8,270.9,199.8z"/>
<g>
	<path class="st3" d="M203.2,122.3h64.9c0.9,0,1.6,0.7,1.6,1.6v0.6c0,0.9-0.7,1.6-1.6,1.6h-57.3"/>
	<path class="st3" d="M210.8,187.2h57.3c0.9,0,1.6,0.7,1.6,1.6l0,0c0,1.2-1,2.2-2.2,2.2h-64.3"/>
	<path class="st3" d="M265.9,188.4v-64.2c0-1,0.8-1.9,1.9-1.9l0,0c1,0,1.9,0.8,1.9,1.9v64.2c0,1-0.8,1.9-1.9,1.9l0,0
		C266.8,190.2,265.9,189.4,265.9,188.4z"/>
</g>
<path class="st3" d="M232.2,152.8h-5.9v-5.9c0-0.9-0.8-1.7-1.7-1.7h-3.4c-0.9,0-1.7,0.8-1.7,1.7v5.9h-5.1c-0.9,0-1.7,0.8-1.7,1.7
	v3.4c0,0.9,0.8,1.7,1.7,1.7h5.1v5.1c0,0.9,0.8,1.7,1.7,1.7h3.4c0.9,0,1.7-0.8,1.7-1.7v-5.1h5.9c0.9,0,1.7-0.8,1.7-1.7v-3.4
	C233.9,153.6,233.2,152.8,232.2,152.8z"/>
<path class="st2" d="M247.5,93h-2.2c-0.2,0-0.5,0-0.7,0.1c-0.2-0.1-0.4-0.1-0.7-0.1h-44.3h-1.8h-0.4c-0.9,0-1.7,0.8-1.7,1.7v15.6
	h5.5V98.5h42.2v11.8h5.5V94.7C249.1,93.8,248.4,93,247.5,93z"/>
<path class="st2" d="M244.7,218H119l14.3-5H259"/>
<path class="st2" d="M229.7,228H104l14.3-5H244"/>
<path class="st2" d="M209.7,238H84l14.3-5H224"/>
</svg>
